<?xml version="1.0" standalone="no"?>
<!DOCTYPE svg PUBLIC "-//W3C//DTD SVG 20010904//EN"
 "http://www.w3.org/TR/2001/REC-SVG-20010904/DTD/svg10.dtd">
<svg version="1.0" xmlns="http://www.w3.org/2000/svg"
 width="188.000000pt" height="188.000000pt" viewBox="0 0 188.000000 188.000000"
 preserveAspectRatio="xMidYMid meet">
<metadata>
Created by potrace 1.14, written by Peter Selinger 2001-2017
</metadata>
<g transform="translate(0.000000,188.000000) scale(0.100000,-0.100000)"
fill="#000000" stroke="none">
<path d="M490 1690 c0 -4 -8 -7 -17 -7 -32 2 -93 -14 -93 -23 0 -6 -3 -9 -7
-8 -11 3 -54 -13 -67 -24 -6 -4 -33 -24 -61 -43 -27 -19 -47 -35 -43 -35 3 0
-9 -16 -27 -35 -71 -72 -132 -239 -150 -408 -8 -72 -8 -250 0 -332 8 -81 42
-219 70 -280 28 -59 77 -130 114 -161 14 -12 37 -31 50 -43 13 -12 30 -21 37
-21 7 0 14 -5 16 -11 2 -5 10 -11 18 -13 8 -1 25 -8 38 -14 12 -7 22 -10 22
-6 0 3 6 2 13 -4 14 -11 85 -25 139 -27 20 0 39 -3 42 -6 3 -3 28 -3 56 1 29
4 54 2 60 -4 6 -6 10 -6 10 -1 0 13 123 13 132 0 5 -7 8 -6 8 0 0 10 81 10
108 0 6 -2 12 -1 12 3 0 9 114 7 129 -2 6 -4 11 -1 11 6 0 9 3 9 10 -2 5 -8
10 -10 10 -5 0 11 111 12 129 1 6 -4 11 -1 11 6 0 9 3 9 10 -2 5 -8 10 -10 10
-5 0 11 111 12 129 1 6 -4 11 -1 11 6 0 9 3 9 10 -2 5 -8 10 -10 10 -5 0 11
111 12 129 1 6 -4 11 -3 11 2 0 12 43 10 52 -3 5 -7 8 -7 8 0 0 6 31 9 77 8
42 -1 85 3 96 8 24 13 45 65 42 104 -4 56 -6 60 -26 85 l-21 25 -646 1 c-356
1 -663 4 -682 8 -19 4 -62 20 -97 37 -115 55 -181 166 -209 349 -12 80 -6 253
12 330 42 187 127 280 296 323 66 17 98 43 107 89 9 39 -4 107 -24 127 -15 15
-85 24 -85 11z"/>
<path d="M730 1229 c0 -6 -4 -8 -9 -5 -25 16 -98 -53 -123 -114 -18 -44 -19
-142 -2 -196 42 -136 168 -179 250 -87 82 92 85 249 8 350 -14 18 -32 33 -40
33 -7 0 -14 5 -14 11 0 5 -4 7 -10 4 -5 -3 -16 -3 -22 2 -19 11 -38 12 -38 2z
m34 -80 c27 4 39 -4 63 -40 65 -99 15 -258 -83 -259 -80 -1 -135 132 -95 230
10 26 61 89 61 76 0 -4 8 -3 17 3 12 6 20 6 24 -1 3 -5 9 -9 13 -9z"/>
<path d="M1360 1228 c0 -5 -6 -8 -14 -8 -7 0 -26 -12 -41 -27 -71 -71 -89
-208 -41 -307 79 -162 246 -131 294 54 13 49 5 136 -17 184 -21 47 -53 86 -70
86 -6 0 -11 5 -11 11 0 6 -7 9 -15 5 -8 -3 -15 -2 -15 3 0 4 -16 7 -35 7 -19
-1 -35 -4 -35 -8z"/>
</g>
</svg>
